<svg xmlns="http://www.w3.org/2000/svg" viewBox="0 0 1600 1000" role="img" aria-label="Plataforma offshore sobre o mar">
  <defs>
    <linearGradient id="sky" x1="0" y1="0" x2="0" y2="1"><stop stop-color="#68b8cf"/><stop offset=".5" stop-color="#b9dce4"/><stop offset="1" stop-color="#e8e7d8"/></linearGradient>
    <linearGradient id="sea" x1="0" y1="0" x2="0" y2="1"><stop stop-color="#147f98"/><stop offset="1" stop-color="#06364f"/></linearGradient>
    <linearGradient id="shade" x1="0" y1="0" x2="1" y2="0"><stop stop-color="#031e31" stop-opacity=".22"/><stop offset="1" stop-color="#031e31" stop-opacity=".72"/></linearGradient>
  </defs>
  <rect width="1600" height="590" fill="url(#sky)"/>
  <circle cx="310" cy="225" r="92" fill="#fff4bf" opacity=".6"/>
  <path d="M0 545 Q200 520 400 548 T800 542 T1200 550 T1600 536 V1000 H0Z" fill="url(#sea)"/>
  <g fill="none" stroke="#b7e1e7" opacity=".28" stroke-width="6"><path d="M0 690q180-35 360 0t360 0t360 0t360 0"/><path d="M80 810q180-35 360 0t360 0t360 0t360 0"/><path d="M0 920q180-35 360 0t360 0t360 0t360 0"/></g>
  <g transform="translate(180 245)">
    <path d="M205 295h535l-52 72H255z" fill="#163a4c"/>
    <path d="M280 367h48l-28 330h-76zM610 367h48l70 330h-76z" fill="#0b293b"/>
    <rect x="275" y="205" width="390" height="95" rx="3" fill="#e9eef0"/>
    <rect x="305" y="145" width="126" height="62" fill="#f7f8f7"/><rect x="455" y="117" width="166" height="90" fill="#d6e1e5"/>
    <g fill="#0a526c"><rect x="326" y="162" width="22" height="18"/><rect x="362" y="162" width="22" height="18"/><rect x="485" y="140" width="25" height="20"/><rect x="524" y="140" width="25" height="20"/><rect x="563" y="140" width="25" height="20"/></g>
    <path d="M220 203h500M248 233h444" stroke="#f2a51f" stroke-width="9"/>
    <path d="M400 144V12h72v132M410 12l26-70 26 70M420-1h33" fill="none" stroke="#253c48" stroke-width="11"/>
    <path d="M690 205V50h18v155M648 82h100M658 112h80" fill="none" stroke="#344f5d" stroke-width="9"/>
    <rect x="715" y="166" width="42" height="38" fill="#bed630"/>
    <g fill="#fff"><rect x="290" y="270" width="62" height="14"/><rect x="375" y="270" width="62" height="14"/><rect x="460" y="270" width="62" height="14"/></g>
  </g>
  <rect width="1600" height="1000" fill="url(#shade)"/>
</svg>
